<svg xmlns="http://www.w3.org/2000/svg" version="1.1" xmlns:xlink="http://www.w3.org/1999/xlink" width="1500" height="1500" viewBox="0 0 1500 1500"><rect width="1500" height="1500" fill="#010536"></rect><g transform="matrix(0.6666666666666666,0,0,0.6666666666666666,249.39393939393932,567.4594384399841)"><svg viewBox="0 0 396 144" data-background-color="#010536" preserveAspectRatio="xMidYMid meet" height="545" width="1500" xmlns="http://www.w3.org/2000/svg" xmlns:xlink="http://www.w3.org/1999/xlink"><g id="tight-bounds" transform="matrix(1,0,0,1,0.24000000000003752,0.34635100360267757)"><svg viewBox="0 0 395.5199999999999 143.30729799279462" height="143.30729799279462" width="395.5199999999999"><g><svg viewBox="0 0 395.5199999999999 143.30729799279462" height="143.30729799279462" width="395.5199999999999"><g><svg viewBox="0 0 395.5199999999999 143.30729799279462" height="143.30729799279462" width="395.5199999999999"><g id="textblocktransform"><svg viewBox="0 0 395.5199999999999 143.30729799279462" height="143.30729799279462" width="395.5199999999999" id="textblock"><g><svg viewBox="0 0 395.5199999999999 143.30729799279462" height="143.30729799279462" width="395.5199999999999"><g transform="matrix(1,0,0,1,0,0)"><svg width="395.5199999999999" viewBox="-0.05 -34.65 97.14 35.199999999999996" height="143.30729799279462" data-palette-color="#fbfbf8"><g class="wordmark-text-0" data-fill-palette-color="primary" id="text-0"><path d="M12.1 0.55L11.55 0.1Q11.65-3.65 11.68-7.43 11.7-11.2 11.7-14.95L11.7-14.95 4.25-29.7Q3.4-31.4 2.43-31.88 1.45-32.35-0.05-32.55L-0.05-32.55-0.05-33.95 0.3-34.3 7.55-34.3 14.6-18.05Q14.65-18 14.83-17.82 15-17.65 15.2-17.65L15.2-17.65Q15.35-17.65 15.9-18.43 16.45-19.2 17.2-20.43 17.95-21.65 18.7-23L18.7-23Q18.85-23.25 19.6-24.55 20.35-25.85 21.38-27.6 22.4-29.35 23.43-31.05 24.45-32.75 25.1-33.8L25.1-33.8 29.35-34.65 29.55-33.75Q26.8-30.15 24.53-27.15 22.25-24.15 20.25-21.33 18.25-18.5 16.15-15.3L16.15-15.3 16.6-0.9 12.1 0.55ZM32.7-13.8L44.45-13.8 44.15-11.8 32.35-11.8 32.7-13.8ZM75.84 0.5L75.84 0.5Q74.59 0.5 74-0.83 73.4-2.15 72.95-3.8L72.95-3.8 70.25-13.2Q70.05-13.65 69.7-13.65L69.7-13.65 58.45-13.65Q58.15-13.65 57.95-13.25L57.95-13.25 52.1-0.85 47.55 0.1 47.4-0.4Q51.85-7.9 56.12-15.55 60.4-23.2 64.34-31L64.34-31Q64.4-31.15 64.4-31.35L64.4-31.35Q64.4-31.45 64.27-31.65 64.15-31.85 63.8-31.9L63.8-31.9 59.3-32.65 59.3-34 69-34Q69.4-31.95 70.17-28.83 70.95-25.7 71.9-22.28 72.84-18.85 73.65-15.85L73.65-15.85Q74.5-12.8 75.52-9.5 76.55-6.2 77.9-3.95L77.9-3.95Q78.4-3.15 79.25-2.8 80.09-2.45 81.09-2.45L81.09-2.45Q81.65-2.45 82.2-2.5 82.75-2.55 83.25-2.6L83.25-2.6 83.3-1.3 78.09 0.2Q77 0.5 75.84 0.5ZM65.55-28.8L65.55-28.8Q65.25-28.8 65.25-28.6L65.25-28.6 59.45-16.4Q59.4-16.35 59.4-16.18 59.4-16 59.4-15.95L59.4-15.95Q59.4-15.6 59.75-15.6L59.75-15.6 69.15-15.6Q69.5-15.6 69.5-15.95L69.5-15.95Q69.5-15.95 69.45-16.15 69.4-16.35 69.4-16.4L69.4-16.4 65.9-28.6Q65.8-28.8 65.55-28.8ZM97.09-1.15L97.09-1.15 96.99 0.05 83.74 0.05 83.74-1.25Q85.59-1.6 86.49-1.93 87.39-2.25 87.72-2.78 88.04-3.3 88.09-4.23 88.14-5.15 88.19-6.7L88.19-6.7 88.19-24.85Q88.19-26.3 88.17-27.75 88.14-29.2 88.04-30.6L88.04-30.6Q87.99-31.35 87.72-31.63 87.44-31.9 86.52-32.1 85.59-32.3 83.59-32.75L83.59-32.75 83.59-33.85 83.94-34.15 96.44-34.15 96.74-33.85 96.74-32.8 93.39-32.05Q92.39-31.8 92.29-30.75L92.29-30.75Q92.09-29.3 92.07-27.03 92.04-24.75 92.09-22.33 92.14-19.9 92.14-17.95L92.14-17.95Q92.14-15.45 92.17-13.1 92.19-10.75 92.24-8.45L92.24-8.45Q92.29-7.4 92.24-5.98 92.19-4.55 92.49-3.43 92.79-2.3 93.84-2L93.84-2Q94.39-1.85 95.14-1.65 95.89-1.45 96.49-1.3 97.09-1.15 97.09-1.15Z" fill="#fbfbf8" data-fill-palette-color="primary"></path></g></svg></g></svg></g></svg></g></svg></g></svg></g><defs></defs></svg><rect width="395.5199999999999" height="143.30729799279462" fill="none" stroke="none" visibility="hidden"></rect></g></svg></g></svg>